<?xml version="1.0" encoding="utf-8"?>
<!-- Generator: Adobe Illustrator 28.1.0, SVG Export Plug-In . SVG Version: 6.00 Build 0)  -->
<svg version="1.1" id="Outline" xmlns="http://www.w3.org/2000/svg" xmlns:xlink="http://www.w3.org/1999/xlink" x="0px" y="0px"
	 viewBox="0 0 512 512" style="enable-background:new 0 0 512 512;" xml:space="preserve">
<style type="text/css">
	.st0{fill:#FFFFFF;}
</style>
<g>
	<path class="st0" d="M474.3,489.8l-60.1-90.4h-22.7c-17.7,0-32.1-14.4-32.1-32.1v-50.4l-20.9-31.5v189.4c0,8.8-3.5,16.8-9.3,22.6
		c1.3,1.2,2.7,2.2,4.2,3.1c3.7,2.2,7.4,3.3,11.2,3.3h126.1c4.9,0,7.3-1.7,7.3-5C478,496.6,476.8,493.6,474.3,489.8z M453.3,8.2
		H326.5c-3.8,0-7.6,1.2-11.5,3.5c-3.9,2.3-7.1,5.4-9.5,9.2c-24,31.1-47.7,61.8-71.1,92.1c-23.3,30.2-47.1,60.9-71.4,92.1V23.2
		c0-4.4-1.8-8-5.5-10.7c-3.7-2.7-7.1-4-10.5-4H48.6c-4.7,0-8.3,1.5-10.8,4.3c-2.6,2.9-3.8,6.3-3.8,10.3v466c0,9.8,5,14.7,15,14.7
		h98.2c10.6,0,16-4.9,16-14.7V359.1l38.7-44.5v-59.5c0-17.7,14.4-32.1,32.1-32.1h70.7L457.7,21.2c2.4-3.1,3.7-5.8,3.7-8
		C461.3,9.8,458.7,8.2,453.3,8.2z"/>
</g>
<g>
	<path class="st0" d="M321.9,255.1v219.7c0,3.5-1.1,6.7-3.1,9.3c-2.9,3.8-7.4,6.3-12.5,6.3h-72.4c-8.6,0-15.6-7-15.6-15.6V255.1
		c0-8.6,7-15.6,15.6-15.6h72.4c0.6,0,1.1,0,1.7,0.1C315.8,240.4,321.9,247.1,321.9,255.1z"/>
</g>
<g>
	<path class="st0" d="M479.5,255.1v112.2c0,8.6-7,15.6-15.6,15.6h-72.4c-8.6,0-15.6-7-15.6-15.6V255.1c0-8.6,7-15.6,15.6-15.6h72.4
		C472.5,239.5,479.5,246.5,479.5,255.1z"/>
</g>
</svg>
